# xmcd
# Track frame offsets:
# 183
# 14190
# 30778
# 42408
# 58083
# 69915
# 82758
# 93065
# 107058
# 119338
# 131990
# 143913
# 157103
# 170418
# 183683
# 192750
#
# Disc length: 2762 seconds
# Revision: 0
# Processed by: cddbd v1.5PL3 Copyright (c) Steve Scherf et al.
# Submitted via: VisiTrax 2.9.8.200 - For more info visit www.synapsa.com
#
DISCID=d90ac810
DTITLE=John Mogensen - 16 Gyldne Hits
DYEAR=1986
DGENRE=Dansk Pop
TTITLE0=Så længe jeg lever
TTITLE1=Hvad tænker de på
TTITLE2=Kom, kom til Klondike
TTITLE3=Sæt dig ned i en vejgrøft
TTITLE4=Automobil
TTITLE5=Man ska' aldrig sige aldrig
TTITLE6=To mennesker på en strand
TTITLE7=En fattig trobadur
TTITLE8=Der er noget galt i Danmark
TTITLE9=Mytteriet på H.M.S. "Bounty"
TTITLE10=Erhard
TTITLE11=Karl and Ann-Cathrin'
TTITLE12=Ursula
TTITLE13=Ensomhedens gade nr. 9
TTITLE14=Livet er kort
TTITLE15=Den gamle violin
EXTD=
EXTT0=
EXTT1=
EXTT2=
EXTT3=
EXTT4=
EXTT5=
EXTT6=
EXTT7=
EXTT8=
EXTT9=
EXTT10=
EXTT11=
EXTT12=
EXTT13=
EXTT14=
EXTT15=
PLAYORDER=
